<svg fill="none" xmlns="http://www.w3.org/2000/svg" viewBox="0 0 22 22">
  <path fill-rule="evenodd" clip-rule="evenodd" d="M16.782 18.585a5.57 5.57 0 0 1-3.107-.968 6.868 6.868 0 0 1-.616-.457 7.96 7.96 0 0 1-2.094.281c-4.11 0-7.445-3.08-7.445-6.864 0-3.801 3.335-6.881 7.445-6.881 4.1 0 7.445 3.08 7.445 6.864 0 1.813-.748 3.511-2.112 4.796.156.826.5 1.606 1.003 2.279a.6.6 0 0 1-.493.95h-.026Zm0-.88v.44l.026-.44h-.026Zm-3.45-1.443.185.176a5.359 5.359 0 0 0 2.851 1.355 6.285 6.285 0 0 1-.73-1.619 4.533 4.533 0 0 1-.141-.66 2.115 2.115 0 0 1-.018-.255v-.202l.159-.132a5.806 5.806 0 0 0 2.024-4.365c0-3.362-2.992-6.099-6.688-6.099-3.688 0-6.688 2.737-6.688 6.099 0 3.37 3 6.107 6.688 6.107.73 0 1.443-.106 2.12-.308l.247-.07-.009-.027Z" fill="#F18E89"/>
</svg>