<svg fill="none" xmlns="http://www.w3.org/2000/svg" viewBox="0 0 20 20">
  <path fill-rule="evenodd" clip-rule="evenodd" d="M9.476.69 10 2.738 10.524.69H9.476Zm3.372.841-.986-.324-.276 2.09 1.262-1.766Zm-4.717-.324-.986.324 1.269 1.766-.283-2.09Zm8.745 8.655-2.083-3.655c-.2-.297-.476-.483-.772-.538a.8.8 0 0 0-.628.152.946.946 0 0 0-.372.579l.034.048 1.966 3.449c1.345 2.455.91 4.806-1.276 6.993-.121.12-.248.235-.38.345a3.965 3.965 0 0 0 2.318-1.214c2.248-2.255 2.096-4.655 1.193-6.145v-.014Zm-6.82-2.352c-.111-.572.068-1.082.482-1.482L8.814 4.31a.942.942 0 0 0-1.297 0 .915.915 0 0 0-.227.435l2.765 2.758v.007Z" fill="#F18E89"/>
  <path fill-rule="evenodd" clip-rule="evenodd" d="M12.283 6.924a.945.945 0 0 0-.607-.414.559.559 0 0 0-.441.104c-.125.09-.49.38-.166 1.076l.986 2.09a.372.372 0 1 1-.6.42l-5.11-5.11a.683.683 0 1 0-.966.965L8.414 9.09a.372.372 0 1 1-.524.524L4.855 6.579 4 5.724a.683.683 0 0 0-1.113.739.676.676 0 0 0 .147.22l.863.855 3.034 3.034a.372.372 0 0 1 0 .525.372.372 0 0 1-.524 0L3.372 8.062a.69.69 0 0 0-1.115.221.676.676 0 0 0 .15.745l1.283 1.275 1.903 1.91a.372.372 0 0 1-.524.525l-1.91-1.91a.674.674 0 0 0-.966 0 .683.683 0 0 0 0 .965l3.676 3.67c2.324 2.323 4.58 3.434 7.235.772 1.89-1.89 2.255-3.821 1.117-5.904L12.29 6.924h-.007Z" fill="#F18E89"/>
</svg>