<svg fill="none" xmlns="http://www.w3.org/2000/svg" viewBox="0 0 22 22">
  <path fill-rule="evenodd" clip-rule="evenodd" d="m10.209 0 .577 2.253L11.362 0H10.21Zm2.337 2.868L13.94.926 12.856.569l-.31 2.299ZM7.66.926l1.396 1.942L8.745.569 7.66.926ZM16.763 16.4a3.877 3.877 0 0 1-2.397 1.222l.372-.342c2.185-2.192 2.617-4.536 1.282-6.986l-.835-1.472-.728-1.533c-.235-.508-.174-.895.19-1.176a.637.637 0 0 1 .5-.12c.258.037.501.212.668.454l2.162 3.809c.895 1.494 1.047 3.884-1.214 6.144ZM6.69 16.007l-3.808-3.808a.758.758 0 0 1 .827-1.232c.094.04.179.097.25.17l1.972 1.972a.336.336 0 0 0 .478-.47L4.413 10.65 3.086 9.323a.759.759 0 1 1 1.07-1.07l3.147 3.15a.334.334 0 0 0 .478 0 .334.334 0 0 0 0-.471l-3.14-3.149-.895-.895a.759.759 0 0 1 0-1.062.774.774 0 0 1 1.07 0l.894.88L8.86 9.862a.334.334 0 0 0 .544-.11.334.334 0 0 0-.074-.368L6.181 6.236a.75.75 0 0 1-.228-.531.75.75 0 0 1 .228-.531.759.759 0 0 1 1.07 0l5.31 5.295a.334.334 0 0 0 .53-.38l-1.023-2.161c-.236-.516-.175-.903.19-1.184a.646.646 0 0 1 .5-.121c.258.045.5.212.668.455l2.01 3.543c1.19 2.184.812 4.202-1.176 6.19a4.263 4.263 0 0 1-3.839 1.252 7.093 7.093 0 0 1-3.74-2.064l.008.008Zm2.959-11.47 1.942 1.942c-.38.455-.425 1.07-.114 1.73l.197.424L8.45 5.41a.744.744 0 0 1-.091-.341c0-.2.08-.39.22-.531a.774.774 0 0 1 1.07 0Zm6.744 1.562c-.289-.425-.683-.698-1.13-.766a1.32 1.32 0 0 0-1.017.25c-.288.22-.463.494-.539.805-.23-.222-.52-.37-.834-.425a1.35 1.35 0 0 0-.751.098L10.118 4.06a1.426 1.426 0 0 0-2.01 0 1.411 1.411 0 0 0-.365.644 1.434 1.434 0 0 0-2.025-.007c-.188.187-.32.424-.38.683-.576-.57-1.517-.57-2.048-.03a1.426 1.426 0 0 0 0 2.017c-.227.091-.462.22-.66.417a1.426 1.426 0 0 0 0 2.018l.47.47a1.426 1.426 0 0 0-.682 2.398l3.8 3.808c1.214 1.214 2.671 2.003 4.097 2.246.296.05.595.075.895.076.782 0 1.518-.19 2.2-.531a4.475 4.475 0 0 0 3.824-1.396c2.534-2.534 2.336-5.258 1.32-6.957l-2.177-3.823.015.007Z" fill="#F18E89"/>
</svg>