<svg fill="none" xmlns="http://www.w3.org/2000/svg" viewBox="0 0 20 20">
  <path d="M10 0C4.478 0 0 4.478 0 10c0 5.523 4.478 10 10 10 5.523 0 10-4.477 10-10 0-5.522-4.477-10-10-10Zm6.46 15.254c-.217-.488-.657-.826-1.558-1.034-1.911-.44-3.69-.828-2.828-2.454 2.621-4.952.694-7.6-2.074-7.6-2.823 0-4.703 2.75-2.074 7.6.888 1.636-.957 2.022-2.828 2.454-.903.208-1.34.548-1.555 1.038A8.295 8.295 0 0 1 1.667 10c0-4.595 3.738-8.333 8.333-8.333 4.595 0 8.333 3.738 8.333 8.333 0 1.99-.704 3.82-1.872 5.254Z" fill="#412D09"/>
</svg>