<svg fill="none" xmlns="http://www.w3.org/2000/svg" viewBox="0 0 24 24">
  <path d="M1.64 18.595c-.092-.201-.14-.42-.14-.64v-.457A37.06 37.06 0 0 1 3.326 6h8.212a38.045 38.045 0 0 0-.888 3.294l.732.162c.258-1.162.576-2.323.945-3.456h.799a1.502 1.502 0 0 0 1.5-1.5V3.375A.374.374 0 0 0 14.25 3h-1.875a1.501 1.501 0 0 1 1.5-1.5h.067a1.503 1.503 0 0 1 1.447 1.105l.552 2.024c.131.48.254.97.366 1.455l.73-.168a38.1 38.1 0 0 0-.372-1.485l-.552-2.023A2.255 2.255 0 0 0 13.944.75H3.75A2.253 2.253 0 0 0 1.5 3v1.5a1.503 1.503 0 0 0 1.06 1.434A37.806 37.806 0 0 0 .75 17.498v.456c0 .329.07.653.207.951l.682-.31ZM13.875 3.75v.75a.75.75 0 1 1-1.5 0v-.75h1.5ZM2.25 4.5V3a1.502 1.502 0 0 1 1.5-1.5h8.45a2.24 2.24 0 0 0-.574 1.5v1.5c0 .263.069.522.2.75H3a.75.75 0 0 1-.75-.75Z" fill="#000"/>
  <path d="m19.585 10.71-.17.731c2.277.532 3.085 1.24 3.085 1.684 0 .382-.542.825-1.544 1.216-.175-.557-.88-1.018-2.101-1.373l-.21.72c1.042.302 1.547.667 1.6.898-1.49.453-3.666.79-6.37.79-2.705 0-4.88-.337-6.37-.79.075-.354 1.144-.955 3.421-1.27l-.102-.742c-1.143.157-2.114.402-2.808.707-.684.3-1.094.656-1.222 1.06-1.002-.391-1.544-.834-1.544-1.216 0-.158.129-.72 1.787-1.31 1.263-.449 3.033-.763 4.986-.884l-.046-.748c-2.02.125-3.865.454-5.192.926-1.889.672-2.285 1.467-2.285 2.016 0 .79.146 1.573.433 2.31l.76 1.951.698-.272-.759-1.951a5.636 5.636 0 0 1-.214-.676c.48.322 1.146.609 1.988.854 1.733.506 4.03.784 6.469.784s4.736-.278 6.469-.784c.842-.245 1.508-.532 1.988-.854-.057.23-.129.455-.214.676l-1.288 3.31c-.122.314-.29.608-.499.872l.588.466c.255-.323.461-.682.61-1.066l1.288-3.31c.287-.737.434-1.52.433-2.31 0-1.355-2.296-2.094-3.665-2.414Z" fill="#000"/>
  <path d="M16.609 7.808a7.688 7.688 0 0 0-4.24 3.769l-1.079 2.158.67.335 1.08-2.158a6.936 6.936 0 0 1 3.546-3.291c.02.073.044.144.073.214-1.034.87-1.964 2.058-2.638 3.376l-1.104 2.144.667.344 1.104-2.146c.626-1.223 1.483-2.322 2.434-3.128a1.51 1.51 0 0 0 .285.169l-.47.877c-.408.764-.83 1.555-1.263 2.374l-.85 1.604.662.352.85-1.605c.432-.82.853-1.61 1.263-2.37l.556-1.04a6.846 6.846 0 0 1-.829 3.694l-.526.965.658.36.527-.966a7.595 7.595 0 0 0 .895-4.404c.153-.112.282-.253.38-.415l2.986-4.884a1.468 1.468 0 0 0-2.506-1.531l-2.985 4.884c-.061.1-.11.207-.146.32Zm.786.072 2.985-4.884a.719.719 0 1 1 1.226.749L18.62 8.629a.717.717 0 0 1-1.311-.206.718.718 0 0 1 .085-.543ZM19.419 19.59a1.409 1.409 0 0 0-1.073-.362l-.354.032A2.628 2.628 0 0 0 15.75 18H4.875a2.626 2.626 0 0 0-2.243 1.26l-.353-.032a1.402 1.402 0 1 0 0 2.794l.353-.032a2.642 2.642 0 0 0 2.243 1.26H15.75a2.608 2.608 0 0 0 2.243-1.26l.353.032a1.402 1.402 0 0 0 1.072-2.432ZM2.21 21.275a.654.654 0 0 1-.531-1.1.652.652 0 0 1 .531-.2l2.258.206a.446.446 0 0 1 0 .888l-2.258.206Zm1.3.635 1.026-.094a1.197 1.197 0 0 0 0-2.382L3.51 19.34l.04-.04a1.874 1.874 0 1 1-.038 2.61Zm13.565.04a1.86 1.86 0 0 1-1.326.55H6.71a2.62 2.62 0 0 0 0-3.75h9.04a1.875 1.875 0 0 1 1.326 3.2Zm1.398-.672-.06-.003-.117-.01c.104-.42.104-.86-.001-1.28l.117-.01a.653.653 0 1 1 .06 1.302Z" fill="#000"/>
</svg>