<svg fill="none" xmlns="http://www.w3.org/2000/svg" viewBox="0 0 14 14">
  <path d="M11.594 1.75H9.188v-.438C9.188.589 8.6 0 7.875 0h-1.75C5.4 0 4.812.588 4.812 1.313v.437H2.406c-.604 0-1.094.49-1.094 1.094v.875c0 .241.196.437.438.437h10.5a.438.438 0 0 0 .438-.437v-.875c0-.604-.49-1.094-1.094-1.094Zm-5.906-.438c0-.24.196-.437.437-.437h1.75c.241 0 .438.196.438.438v.437H5.687v-.438ZM2.143 5.031a.137.137 0 0 0-.137.143l.361 7.576A1.31 1.31 0 0 0 3.677 14h6.645c.701 0 1.277-.55 1.31-1.25l.362-7.576a.137.137 0 0 0-.137-.143H2.143ZM8.75 6.125a.437.437 0 1 1 .875 0v5.688a.437.437 0 1 1-.875 0V6.125Zm-2.188 0a.437.437 0 1 1 .875 0v5.688a.437.437 0 1 1-.875 0V6.125Zm-2.187 0a.437.437 0 1 1 .875 0v5.688a.437.437 0 1 1-.875 0V6.125Z" fill="#412D09"/>
</svg>